HIERARCHY
ROOT hips
{
	OFFSET 0.000000 104.274902 0.000000
	CHANNELS 6 Xposition Yposition Zposition Xrotation Yrotation Zrotation
	JOINT spine
	{
		OFFSET 0.000000 10.181549 0.131524
		CHANNELS 6 Xposition Yposition Zposition Xrotation Yrotation Zrotation
		JOINT chest
		{
			OFFSET 0.000000 9.893990 -1.470706
			CHANNELS 3 Xrotation Yrotation Zrotation
			JOINT upperChest
			{
				OFFSET 0.000000 9.220787 -1.370637
				CHANNELS 3 Xrotation Yrotation Zrotation
				JOINT neck
				{
					OFFSET 0.000000 16.740372 -2.049022
					CHANNELS 6 Xposition Yposition Zposition Xrotation Yrotation Zrotation
					JOINT head
					{
						OFFSET 0.000000 9.617859 1.684976
						CHANNELS 6 Xposition Yposition Zposition Xrotation Yrotation Zrotation
						JOINT headEnd
						{
							OFFSET 0.000000 22.037384 7.501072
							CHANNELS 6 Xposition Yposition Zposition Xrotation Yrotation Zrotation
							End Site
							{
								OFFSET 0.000000 23.106567 -2.828246
							}
						}
					}
				}
				JOINT rightShoulder
				{
					OFFSET -4.570000 11.014877 -2.160840
					CHANNELS 6 Xposition Yposition Zposition Xrotation Yrotation Zrotation
					JOINT rightUpperArm
					{
						OFFSET -10.592867 -0.524796 -2.232105
						CHANNELS 3 Xrotation Yrotation Zrotation
						JOINT rightLowerArm
						{
							OFFSET -27.841497 0.000000 -0.000002
							CHANNELS 3 Xrotation Yrotation Zrotation
							JOINT rightHand
							{
								OFFSET -28.328812 0.000000 -0.000001
								CHANNELS 3 Xrotation Yrotation Zrotation
								JOINT rightThumbProximal
								{
									OFFSET -2.464798 -1.573990 2.681911
									CHANNELS 6 Xposition Yposition Zposition Xrotation Yrotation Zrotation
									JOINT rightThumbIntermediate
									{
										OFFSET -3.244781 -1.873383 1.873376
										CHANNELS 3 Xrotation Yrotation Zrotation
										JOINT rightThumbDistal
										{
											OFFSET -2.646263 -1.527817 1.527818
											CHANNELS 6 Xposition Yposition Zposition Xrotation Yrotation Zrotation
											JOINT rightHandThumb4
											{
												OFFSET -1.994591 -1.151581 1.151575
												CHANNELS 6 Xposition Yposition Zposition Xrotation Yrotation Zrotation
												End Site
												{
													OFFSET -1.860176 -1.142715 1.365483
												}
											}
										}
									}
								}
								JOINT rightIndexProximal
								{
									OFFSET -9.108299 -0.517883 2.259803
									CHANNELS 6 Xposition Yposition Zposition Xrotation Yrotation Zrotation
									JOINT rightIndexIntermediate
									{
										OFFSET -3.699997 0.000000 0.000000
										CHANNELS 3 Xrotation Yrotation Zrotation
										JOINT rightIndexDistal
										{
											OFFSET -2.850006 0.000000 0.000000
											CHANNELS 3 Xrotation Yrotation Zrotation
											JOINT rightHandIndex4
											{
												OFFSET -2.772194 0.000000 0.000000
												CHANNELS 3 Xrotation Yrotation Zrotation
												End Site
												{
													OFFSET -2.772202 0.000000 -0.000484
												}
											}
										}
									}
								}
								JOINT rightMiddleProximal
								{
									OFFSET -9.532501 0.000000 -0.000000
									CHANNELS 6 Xposition Yposition Zposition Xrotation Yrotation Zrotation
									JOINT rightMiddleIntermediate
									{
										OFFSET -3.699997 0.000000 0.000000
										CHANNELS 3 Xrotation Yrotation Zrotation
										JOINT rightMiddleDistal
										{
											OFFSET -2.949997 0.000000 0.000000
											CHANNELS 3 Xrotation Yrotation Zrotation
											JOINT rightHandMiddle4
											{
												OFFSET -2.946594 0.000000 0.000000
												CHANNELS 3 Xrotation Yrotation Zrotation
												End Site
												{
													OFFSET -2.946602 0.000000 -0.000982
												}
											}
										}
									}
								}
								JOINT rightRingProximal
								{
									OFFSET -9.103600 -0.043106 -1.865100
									CHANNELS 6 Xposition Yposition Zposition Xrotation Yrotation Zrotation
									JOINT rightRingIntermediate
									{
										OFFSET -3.379303 0.000000 0.000000
										CHANNELS 3 Xrotation Yrotation Zrotation
										JOINT rightRingDistal
										{
											OFFSET -2.889694 0.000000 0.000000
											CHANNELS 3 Xrotation Yrotation Zrotation
											JOINT rightHandRing4
											{
												OFFSET -2.638802 0.000000 0.000000
												CHANNELS 3 Xrotation Yrotation Zrotation
												End Site
												{
													OFFSET -2.638802 0.000000 0.004218
												}
											}
										}
									}
								}
								JOINT rightLittleProximal
								{
									OFFSET -8.076698 -0.486725 -3.806299
									CHANNELS 6 Xposition Yposition Zposition Xrotation Yrotation Zrotation
									JOINT rightLittleIntermediate
									{
										OFFSET -3.600006 0.000000 0.000000
										CHANNELS 3 Xrotation Yrotation Zrotation
										JOINT rightLittleDistal
										{
											OFFSET -2.099998 0.000000 0.000000
											CHANNELS 3 Xrotation Yrotation Zrotation
											JOINT rightHandPinky4
											{
												OFFSET -2.115791 0.000000 0.000000
												CHANNELS 3 Xrotation Yrotation Zrotation
												End Site
												{
													OFFSET -2.115799 0.000000 0.000174
												}
											}
										}
									}
								}
							}
						}
					}
				}
				JOINT leftShoulder
				{
					OFFSET 4.570400 11.014679 -2.160816
					CHANNELS 6 Xposition Yposition Zposition Xrotation Yrotation Zrotation
					JOINT leftUpperArm
					{
						OFFSET 10.592373 -0.524597 -2.232116
						CHANNELS 3 Xrotation Yrotation Zrotation
						JOINT leftLowerArm
						{
							OFFSET 27.841488 0.000000 0.000001
							CHANNELS 3 Xrotation Yrotation Zrotation
							JOINT leftHand
							{
								OFFSET 28.328808 0.000000 -0.000000
								CHANNELS 3 Xrotation Yrotation Zrotation
								JOINT leftThumbProximal
								{
									OFFSET 2.466103 -1.576202 2.681698
									CHANNELS 6 Xposition Yposition Zposition Xrotation Yrotation Zrotation
									JOINT leftThumbIntermediate
									{
										OFFSET 3.243317 -1.872528 1.872530
										CHANNELS 3 Xrotation Yrotation Zrotation
										JOINT leftThumbDistal
										{
											OFFSET 2.647881 -1.528763 1.528754
											CHANNELS 6 Xposition Yposition Zposition Xrotation Yrotation Zrotation
											JOINT leftHandThumb4
											{
												OFFSET 1.998924 -1.154083 1.154080
												CHANNELS 6 Xposition Yposition Zposition Xrotation Yrotation Zrotation
												End Site
												{
													OFFSET 1.884041 -1.149155 1.337651
												}
											}
										}
									}
								}
								JOINT leftIndexProximal
								{
									OFFSET 9.109299 -0.518005 2.259900
									CHANNELS 6 Xposition Yposition Zposition Xrotation Yrotation Zrotation
									JOINT leftIndexIntermediate
									{
										OFFSET 3.699997 0.000000 0.000000
										CHANNELS 3 Xrotation Yrotation Zrotation
										JOINT leftIndexDistal
										{
											OFFSET 2.850006 0.000000 0.000000
											CHANNELS 3 Xrotation Yrotation Zrotation
											JOINT leftHandIndex4
											{
												OFFSET 2.774895 0.000000 0.000000
												CHANNELS 3 Xrotation Yrotation Zrotation
												End Site
												{
													OFFSET 2.774902 0.000000 -0.000072
												}
											}
										}
									}
								}
								JOINT leftMiddleProximal
								{
									OFFSET 9.533401 0.000000 0.000000
									CHANNELS 6 Xposition Yposition Zposition Xrotation Yrotation Zrotation
									JOINT leftMiddleIntermediate
									{
										OFFSET 3.699997 0.000000 0.000000
										CHANNELS 3 Xrotation Yrotation Zrotation
										JOINT leftMiddleDistal
										{
											OFFSET 2.949997 0.000000 0.000000
											CHANNELS 3 Xrotation Yrotation Zrotation
											JOINT leftHandMiddle4
											{
												OFFSET 2.952896 0.000000 0.000000
												CHANNELS 3 Xrotation Yrotation Zrotation
												End Site
												{
													OFFSET 2.952904 0.000000 0.000165
												}
											}
										}
									}
								}
								JOINT leftRingProximal
								{
									OFFSET 9.104500 -0.042999 -1.865101
									CHANNELS 6 Xposition Yposition Zposition Xrotation Yrotation Zrotation
									JOINT leftRingIntermediate
									{
										OFFSET 3.149994 0.000000 0.000000
										CHANNELS 3 Xrotation Yrotation Zrotation
										JOINT leftRingDistal
										{
											OFFSET 2.950005 0.000000 0.000000
											CHANNELS 3 Xrotation Yrotation Zrotation
											JOINT leftHandRing4
											{
												OFFSET 2.644302 0.000000 0.000000
												CHANNELS 3 Xrotation Yrotation Zrotation
												End Site
												{
													OFFSET 2.644302 0.000000 0.000083
												}
											}
										}
									}
								}
								JOINT leftLittleProximal
								{
									OFFSET 8.077805 -0.486893 -3.806302
									CHANNELS 6 Xposition Yposition Zposition Xrotation Yrotation Zrotation
									JOINT leftLittleIntermediate
									{
										OFFSET 3.600006 0.000000 0.000000
										CHANNELS 3 Xrotation Yrotation Zrotation
										JOINT leftLittleDistal
										{
											OFFSET 2.099998 0.000000 0.000000
											CHANNELS 3 Xrotation Yrotation Zrotation
											JOINT leftHandPinky4
											{
												OFFSET 2.125496 0.000000 0.000000
												CHANNELS 3 Xrotation Yrotation Zrotation
												End Site
												{
													OFFSET 2.125504 0.000000 -0.001254
												}
											}
										}
									}
								}
							}
						}
					}
				}
			}
		}
	}
	JOINT rightUpperLeg
	{
		OFFSET -8.207800 -6.751701 -1.599544
		CHANNELS 6 Xposition Yposition Zposition Xrotation Yrotation Zrotation
		JOINT rightLowerLeg
		{
			OFFSET 0.000004 -44.370152 0.345934
			CHANNELS 3 Xrotation Yrotation Zrotation
			JOINT rightFoot
			{
				OFFSET 0.000004 -44.423664 -3.043535
				CHANNELS 3 Xrotation Yrotation Zrotation
				JOINT rightToes
				{
					OFFSET 0.000001 -8.728691 10.710592
					CHANNELS 3 Xrotation Yrotation Zrotation
					JOINT rightToesEnd
					{
						OFFSET 0.000000 -0.000665 9.278101
						CHANNELS 3 Xrotation Yrotation Zrotation
						End Site
						{
							OFFSET 0.000000 -0.000665 9.278103
						}
					}
				}
			}
		}
	}
	JOINT leftUpperLeg
	{
		OFFSET 8.207800 -6.751701 -1.599544
		CHANNELS 6 Xposition Yposition Zposition Xrotation Yrotation Zrotation
		JOINT leftLowerLeg
		{
			OFFSET 0.000004 -44.370037 0.346940
			CHANNELS 3 Xrotation Yrotation Zrotation
			JOINT leftFoot
			{
				OFFSET 0.000004 -44.423611 -3.044388
				CHANNELS 3 Xrotation Yrotation Zrotation
				JOINT leftToes
				{
					OFFSET 0.000001 -8.728690 10.710592
					CHANNELS 3 Xrotation Yrotation Zrotation
					JOINT leftToesEnd
					{
						OFFSET 0.000000 -0.000680 9.278101
						CHANNELS 3 Xrotation Yrotation Zrotation
						End Site
						{
							OFFSET 0.000000 -0.000680 9.278101
						}
					}
				}
			}
		}
	}
}
MOTION
Frames: 4
Frame Time: 0.033333
-2.669306 101.727592 3.660482 -0.533483 -0.560929 0.946538 -0.000001 10.181533 0.131521 18.330580 8.211275 6.050610 1.334095 1.108437 -2.059833 1.377004 1.021648 -2.076223 0.000000 16.740351 -2.049005 -11.972939 3.505515 -2.309625 -0.000001 9.617849 1.684974 -11.671239 12.742231 4.056104 0.000000 22.037369 7.501078 -0.000001 0.000001 0.000000 -4.570000 11.014879 -2.160834 0.555090 1.713736 -1.866751 23.230051 16.897570 38.753213 0.001755 90.930377 -0.001945 6.950721 14.047577 -6.781754 -2.464799 -1.573997 2.681912 1.906964 -20.587833 -9.158952 4.494094 -7.524219 0.148310 -2.646267 -1.527824 1.527805 -1.271909 -9.236737 -3.662754 -1.994590 -1.151585 1.151571 -0.000002 0.000001 0.000003 -9.108295 -0.517880 2.259815 -1.232418 -0.617802 36.585724 2.549498 -5.383882 50.654121 0.314384 -2.071032 17.261445 -0.000000 0.000001 0.000001 -9.532499 -0.000002 0.000006 0.102661 -2.318886 34.641832 1.637380 -4.486701 40.081961 1.036123 -1.709646 16.072496 0.000003 0.000003 0.000002 -9.103596 -0.043102 -1.865096 1.675287 -4.531361 40.845317 1.054425 -3.686313 31.915363 0.759505 -0.837992 7.681583 -0.000001 0.000002 0.000003 -8.076699 -0.486730 -3.806302 4.702535 -6.840124 56.570909 0.450269 -2.465856 20.693340 0.023176 0.568296 -4.668516 0.000003 0.000004 0.000002 4.570404 11.014685 -2.160809 0.672457 7.164393 -11.718379 1.325727 3.449087 -29.223326 0.000024 -108.826968 0.000043 56.908129 17.774384 -19.761750 2.466095 -1.576212 2.681697 0.067619 1.993643 6.783032 2.978688 9.997727 0.614691 2.647876 -1.528735 1.528741 -0.626541 1.180331 2.825158 1.998918 -1.154076 1.154066 0.000003 0.000003 -0.000000 9.109281 -0.518028 2.259892 -4.622618 -6.290235 -30.439981 0.002566 0.188639 -1.563276 0.012719 -0.419014 3.474206 -0.000001 0.000004 -0.000003 9.533397 -0.000009 -0.000005 -1.467620 -0.704230 -30.165151 0.057356 0.888722 -7.385266 0.002984 -0.202684 1.679724 -0.000002 -0.000000 -0.000002 9.104496 -0.043015 -1.865101 1.755439 4.633078 -37.313013 0.095859 1.147368 -9.552809 0.002719 -0.193689 1.605391 0.000001 -0.000006 0.000000 8.077806 -0.486907 -3.806303 10.918367 11.477791 -53.592202 0.002076 -3.584921 -4.402981 0.021754 -0.548080 4.546397 -0.000001 0.000004 0.000000 -8.207800 -6.751729 -1.599541 -13.948235 -6.080988 -0.260823 30.032352 -10.033898 3.778467 -12.407654 2.195176 6.455160 -6.391116 0.000007 -0.000003 -0.000000 -0.000001 0.000001 8.207799 -6.751713 -1.599544 -21.701806 8.967151 7.842847 40.234291 -0.998418 -9.778245 4.323628 8.881710 -12.551735 -19.955687 -0.373123 5.986992 0.000000 0.000002 0.000000 
-3.381061 101.078209 3.700312 -0.924174 5.583738 3.314774 -0.000001 10.181557 0.131528 18.608652 5.125959 1.522787 1.699096 0.672814 -0.305200 1.704765 0.657184 -0.312785 0.000001 16.740372 -2.049029 -11.859075 3.815157 -0.891535 0.000003 9.617867 1.684979 -12.986366 16.538933 4.366205 0.000002 22.037354 7.501072 -0.000000 0.000003 -0.000000 -4.570001 11.014869 -2.160845 0.306657 -0.278023 -1.625621 26.954956 13.555342 40.229022 -0.000320 84.268511 0.000363 2.658641 18.411687 -7.649469 -2.464797 -1.574008 2.681908 1.074916 -20.124073 -8.984584 5.731277 -7.680108 -0.263476 -2.646262 -1.527812 1.527802 -0.541102 -9.880022 -3.594325 -1.994593 -1.151583 1.151572 -0.000000 0.000003 -0.000002 -9.108282 -0.517875 2.259805 -1.454998 -0.264942 36.250283 2.832616 -5.603007 53.610749 0.360199 -2.212977 18.487058 -0.000004 -0.000002 0.000002 -9.532502 0.000008 -0.000001 0.051460 -2.231464 34.440703 1.766667 -4.635506 41.707526 1.202904 -1.774077 17.103620 -0.000003 -0.000001 0.000003 -9.103597 -0.043108 -1.865098 1.803324 -4.679383 40.747519 1.102613 -3.762399 32.657105 0.903778 -0.874332 8.200645 -0.000000 0.000000 0.000004 -8.076691 -0.486730 -3.806305 5.150699 -7.132709 56.582096 0.452527 -2.471838 20.745957 0.021991 0.553756 -4.548840 -0.000001 -0.000001 0.000004 4.570403 11.014685 -2.160822 0.684761 5.913136 -11.706950 -2.386751 -5.255512 -27.363128 0.000016 -111.379505 0.000044 42.512136 15.736647 -13.736597 2.466105 -1.576192 2.681696 0.231265 2.375277 6.693750 2.942858 9.998198 0.604767 2.647887 -1.528739 1.528757 -0.687780 0.602227 2.912857 1.998924 -1.154093 1.154076 0.000001 0.000002 0.000007 9.109314 -0.518007 2.259896 -4.254301 -7.000538 -27.078596 0.000781 0.103912 -0.861007 0.008301 -0.338566 2.806577 -0.000000 -0.000000 0.000000 9.533413 0.000023 -0.000006 -1.267928 -0.863833 -27.036179 0.050523 0.834339 -6.930967 0.001710 -0.153472 1.271888 -0.000000 0.000000 0.000003 9.104496 -0.042981 -1.865108 1.916353 4.959815 -33.706997 0.102923 1.188585 -9.899189 0.001300 -0.133996 1.110410 -0.000001 0.000001 0.000002 8.077791 -0.486879 -3.806308 11.022710 12.707864 -48.766827 0.026422 -3.330864 -6.516584 0.017515 -0.491787 4.078767 0.000000 -0.000000 0.000001 -8.207800 -6.751701 -1.599543 -11.636612 -6.241535 -0.164232 26.743276 -9.930343 2.854296 -15.493092 -4.006997 -4.612822 -5.635954 -0.000000 -0.000000 -0.000000 0.000001 0.000000 8.207801 -6.751698 -1.599541 -22.503127 5.906681 8.848168 42.090706 -1.142329 -9.767427 3.164485 -2.041360 -16.275829 -15.345468 -0.491054 6.845772 -0.000000 0.000001 -0.000000 
-3.886191 100.122360 4.056493 -2.912872 12.841002 5.207763 0.000000 10.181577 0.131521 20.380158 1.086027 -1.567320 1.213567 0.078533 1.482934 1.211608 0.137950 1.480854 -0.000001 16.740385 -2.049025 -9.947970 4.109896 0.806406 -0.000002 9.617851 1.684978 -12.460728 20.648219 4.092686 0.000001 22.037369 7.501075 -0.000000 0.000004 0.000000 -4.570001 11.014925 -2.160846 0.022431 -2.769961 -1.091007 29.932150 10.281247 41.974289 -0.000155 75.176962 0.000187 2.670784 21.890536 -10.376604 -2.464801 -1.573990 2.681909 0.520632 -19.771198 -8.835779 6.831603 -7.735849 -0.546137 -2.646282 -1.527828 1.527819 -0.133553 -10.301740 -3.523375 -1.994602 -1.151584 1.151576 -0.000000 -0.000000 0.000004 -9.108309 -0.517872 2.259802 -1.598732 -0.034462 36.047464 3.050280 -5.756296 55.809746 0.401127 -2.331730 19.519228 -0.000001 -0.000001 0.000002 -9.532516 0.000005 0.000000 0.069174 -2.252656 34.363030 1.866558 -4.744816 42.928869 1.354046 -1.818683 17.953425 -0.000004 -0.000003 0.000003 -9.103611 -0.043101 -1.865098 2.024528 -4.934314 40.796047 1.140409 -3.820619 33.228785 1.050978 -0.899994 8.646649 -0.000001 0.000001 0.000002 -8.076699 -0.486727 -3.806291 5.763165 -7.518531 56.803620 0.454164 -2.476122 20.783586 0.020747 0.537903 -4.418318 0.000001 -0.000001 -0.000000 4.570403 11.014694 -2.160820 0.573162 3.597863 -9.514691 -3.428378 -12.603477 -28.665843 0.000011 -111.507981 0.000026 31.170173 9.400476 -10.705886 2.466094 -1.576215 2.681700 0.342144 2.677093 6.535090 2.710859 9.999962 0.552354 2.647883 -1.528765 1.528752 -1.244359 0.049739 2.928544 1.998917 -1.154092 1.154078 0.000002 0.000002 -0.000000 9.109288 -0.518000 2.259898 -4.103250 -7.765428 -24.786961 0.000292 0.063536 -0.526677 0.006253 -0.293996 2.437037 -0.000001 0.000000 -0.000002 9.533401 0.000023 0.000000 -1.174061 -1.092565 -24.645085 0.048321 0.816005 -6.777933 0.000997 -0.117413 0.972986 -0.000000 -0.000000 0.000004 9.104485 -0.042989 -1.865101 1.984824 5.230317 -30.677726 0.112808 1.243895 -10.365203 0.000465 -0.079947 0.662503 -0.000000 -0.000000 -0.000001 8.077795 -0.486887 -3.806302 10.964270 13.877526 -44.480067 0.057746 -3.093461 -8.499036 0.013658 -0.434659 3.604037 0.000001 0.000000 0.000000 -8.207800 -6.751706 -1.599544 -12.101112 -8.296516 -1.618758 31.558664 -9.675488 2.508653 -18.838533 -9.740867 -4.571943 -3.478267 0.000001 0.000001 0.000000 -0.000003 -0.000000 8.207800 -6.751686 -1.599547 -21.597982 3.191418 10.510633 39.248067 1.228853 -9.882780 0.590587 1.252356 -15.095975 -7.345807 -0.208979 4.524150 -0.000000 0.000003 -0.000000 
-4.024066 99.116547 4.328334 -4.320294 18.603118 3.424894 -0.000000 10.181550 0.131524 21.163333 -1.427594 1.097034 0.986538 -0.394118 2.586252 0.996846 -0.294788 2.594692 -0.000000 16.740358 -2.049018 -8.573037 4.670715 1.603616 0.000001 9.617881 1.684977 -9.532542 24.694358 3.107597 0.000001 22.037369 7.501075 -0.000000 -0.000001 0.000000 -4.569996 11.014887 -2.160842 -0.265615 -5.828277 -0.075322 30.997622 6.424303 42.298603 -0.000061 67.518223 0.000133 4.650764 21.818874 -12.137957 -2.464792 -1.573999 2.681915 0.302956 -19.592597 -8.747834 7.394191 -7.684392 -0.619780 -2.646256 -1.527798 1.527819 -0.041826 -10.440047 -3.473231 -1.994606 -1.151579 1.151576 0.000005 -0.000002 0.000003 -9.108303 -0.517875 2.259805 -1.637694 0.017376 36.066435 3.165870 -5.832762 56.954618 0.428288 -2.406895 20.176106 -0.000001 -0.000001 -0.000001 -9.532485 -0.000000 -0.000000 0.151340 -2.378931 34.455374 1.921039 -4.802548 43.583792 1.460289 -1.840152 18.481075 0.000001 0.000002 0.000004 -9.103592 -0.043107 -1.865100 2.292653 -5.238384 41.000915 1.161586 -3.852668 33.545262 1.171457 -0.912112 8.942336 0.000000 0.000002 0.000001 -8.076708 -0.486728 -3.806298 6.409768 -7.905581 57.203224 0.454048 -2.475828 20.781030 0.019656 0.523687 -4.301391 0.000001 0.000001 0.000001 4.570404 11.014695 -2.160818 0.569958 1.401206 -7.861816 -3.954693 -18.337478 -30.794454 0.000006 -109.933507 0.000011 22.156492 3.610194 -11.009214 2.466091 -1.576212 2.681700 0.448115 2.963857 6.307577 2.463513 9.981437 0.484663 2.647882 -1.528747 1.528751 -1.915652 -0.402948 2.897532 1.998913 -1.154107 1.154076 -0.000002 -0.000003 0.000001 9.109303 -0.518027 2.259901 -4.183286 -8.375515 -24.001155 0.000268 0.060670 -0.502722 0.006303 -0.295099 2.445972 -0.000001 0.000004 -0.000002 9.533400 0.000007 0.000003 -1.159749 -1.303294 -23.360302 0.049831 0.828583 -6.882847 0.000770 -0.103514 0.857752 0.000001 0.000000 -0.000004 9.104509 -0.043006 -1.865100 2.006188 5.424412 -28.611485 0.122864 1.297648 -10.818522 0.000132 -0.042853 0.355059 -0.000000 0.000001 -0.000001 8.077808 -0.486903 -3.806299 10.822056 14.811810 -41.213232 0.087127 -2.913307 -10.010055 0.010858 -0.387153 3.209776 -0.000000 -0.000001 0.000002 -8.207801 -6.751712 -1.599544 -11.343495 -9.191623 0.163181 33.991929 -9.544143 4.657568 -21.144881 -14.497085 -6.031303 -2.750189 0.000006 0.000004 -0.000000 -0.000002 -0.000000 8.207797 -6.751689 -1.599546 -22.679561 5.568335 16.284353 32.981768 7.469538 -7.180241 -0.926560 3.692010 -13.224250 -3.994599 -0.000008 0.000001 -0.000000 0.000001 -0.000001 
